<svg version="1.1" id="Layer_1" xmlns="http://www.w3.org/2000/svg" x="0" y="0" viewBox="0 0 80 80" xml:space="preserve"><style>.st3{fill:#050b33}</style><circle cx="40" cy="40" r="40" fill="#e5efef"/><path d="M45.78 46.36c0-2.18-.5-4.34-1.47-6.3s-2.39-3.66-4.13-4.98a14.042 14.042 0 00-5.92-2.61c-2.15-.4-4.36-.29-6.46.31-2.1.6-4.03 1.68-5.64 3.16a14.128 14.128 0 00-3.64 5.35c-.78 2.04-1.08 4.23-.87 6.41.21 2.17.92 4.27 2.08 6.12.1.16.17.34.19.53.02.19 0 .38-.05.56l-1.57 4.84 4.83-1.55c.18-.06.37-.08.56-.05.19.02.37.09.53.19 2.13 1.33 4.59 2.07 7.1 2.13 2.51.06 5-.55 7.2-1.77s4.03-3.01 5.31-5.17c1.28-2.17 1.95-4.64 1.95-7.15v-.02z" fill="#fff"/><path class="st3" d="M19.49 58.79l1.52-4.78c.04-.12.05-.25.04-.38a.917.917 0 00-.13-.36 12.786 12.786 0 01-1.75-8.93 12.77 12.77 0 1114.75 14.75c-3.09.53-6.27-.09-8.93-1.75a.917.917 0 00-.36-.13c-.13-.02-.26 0-.38.03l-4.76 1.55zm-1.1 2.22l6.03-1.93.1.06c3.06 1.76 6.66 2.35 10.12 1.65a14.55 14.55 0 0011.67-15.23c-.23-3.52-1.74-6.84-4.23-9.34-2.5-2.5-5.81-4-9.33-4.24-3.52-.23-7.01.82-9.81 2.96-2.8 2.14-4.73 5.23-5.43 8.69-.7 3.46-.11 7.06 1.65 10.12l.06.1-1.94 6.04a.87.87 0 00-.01.48c.04.16.12.3.24.42.12.11.26.19.42.23.14.05.3.04.46-.01z"/><path d="M29.37 32.8c0-2.58.6-5.13 1.75-7.44 1.15-2.31 2.82-4.33 4.89-5.88 2.06-1.56 4.46-2.61 7-3.08 2.54-.47 5.15-.35 7.64.36a16.69 16.69 0 0110.98 10.05c.93 2.41 1.28 5.01 1.03 7.58s-1.09 5.05-2.46 7.24c-.12.19-.2.41-.22.63-.03.22-.01.45.06.66l1.84 5.71-5.71-1.84a1.583 1.583 0 00-1.29.16 16.793 16.793 0 01-8.4 2.52 16.691 16.691 0 01-14.8-8.21 16.65 16.65 0 01-2.31-8.46z" fill="#4fd2c2"/><circle class="st3" cx="45.89" cy="32.64" r="1.42"/><circle class="st3" cx="40.2" cy="32.64" r="1.42"/><circle class="st3" cx="51.57" cy="32.64" r="1.42"/><path class="st3" d="M58.35 20.39a.831.831 0 00-.51-1.07.831.831 0 00-1.07.51c-.16.44.07.91.51 1.07.43.15.91-.08 1.07-.51z"/><path class="st3" d="M62.64 50.58c.13.04.28.06.41.04.14-.02.27-.07.39-.15.13-.09.25-.22.33-.36.08-.14.12-.31.13-.47l-2.53-7.85.11-.19c1.56-2.72 2.39-5.81 2.39-8.95.01-3.56-1.05-7.04-3.04-9.99-.08-.11-.18-.21-.3-.28-.12-.07-.25-.11-.39-.13-.14-.01-.28 0-.4.05a.87.87 0 00-.34.22c-.15.15-.25.35-.27.57-.02.22.03.43.15.61 1.77 2.64 2.72 5.74 2.72 8.91.01 3.17-.92 6.28-2.67 8.93l2.16 6.7-6.29-2.04c-.13-.04-.27-.05-.4-.04-.14.02-.27.06-.38.14a16.09 16.09 0 01-11.82 2.1 16.12 16.12 0 01-9.99-6.67c-3.08-4.47-3.67-10.07-1.63-15.37a15.1 15.1 0 013.37-5.19c1.47-1.48 3.23-2.64 5.17-3.4 4.84-1.9 9.99-1.59 14.28.84a.926.926 0 001.2-.25c.08-.11.14-.23.17-.36.03-.13.03-.27.01-.4a.971.971 0 00-.16-.36c-.08-.11-.18-.2-.29-.27-4.75-2.7-10.47-3.04-15.87-.97-2.19.84-4.17 2.14-5.83 3.8a16.782 16.782 0 00-3.79 5.83c-2.27 5.93-1.61 12.18 1.82 17.17a18 18 0 0010.84 7.38c4.41 1.01 9.04.31 12.97-1.94l.2-.11 7.57 2.45z"/></svg>