<svg version="1.1" id="Layer_1" xmlns="http://www.w3.org/2000/svg" x="0" y="0" viewBox="0 0 80 80" xml:space="preserve"><style>.st1{fill:#fff}.st3{fill:#050b33}</style><circle cx="40" cy="40" r="40" fill="#e5efef"/><path class="st1" d="M22.38 19.86a3.77 3.77 0 013.78 3.78c0 1.27-.64 2.38-1.59 3.07-.28.21-.34.6-.13.88.08.1.18.18.3.22 3.17 1.09 5.49 4.39 5.72 8.42H14.29c.24-4.02 2.55-7.33 5.72-8.42.33-.11.51-.47.4-.8a.606.606 0 00-.22-.3c-.96-.69-1.59-1.8-1.59-3.07 0-2.1 1.68-3.78 3.78-3.78z"/><path d="M40 39.55c-2.92 0-5.3-2.38-5.3-5.3s2.38-5.3 5.3-5.3 5.3 2.38 5.3 5.3-2.38 5.3-5.3 5.3z" fill="#4fd2c2"/><path class="st1" d="M57.62 19.86a3.77 3.77 0 013.78 3.78c0 1.27-.64 2.38-1.59 3.07-.28.21-.34.6-.13.88.08.1.18.18.3.22 3.17 1.09 5.49 4.39 5.72 8.42H49.54c.24-4.02 2.55-7.33 5.72-8.42.33-.11.51-.47.4-.8a.606.606 0 00-.22-.3c-.96-.69-1.59-1.8-1.59-3.07 0-2.1 1.68-3.78 3.77-3.78zM40 43.78a3.77 3.77 0 013.78 3.78c0 1.27-.64 2.38-1.59 3.07-.28.21-.34.6-.13.88.08.1.18.18.3.22 3.17 1.09 5.49 4.39 5.72 8.42H31.92c.24-4.02 2.55-7.33 5.72-8.42.33-.11.51-.47.4-.8a.606.606 0 00-.22-.3c-.96-.69-1.59-1.8-1.59-3.07A3.756 3.756 0 0140 43.78z"/><path class="st3" d="M22.38 18.6a5.05 5.05 0 00-5.04 5.04c0 1.36.64 2.5 1.51 3.4-3.48 1.6-5.92 5.35-5.92 9.82 0 .35.28.63.63.63h17.62c.35 0 .63-.28.63-.63 0-4.47-2.44-8.22-5.92-9.82.88-.91 1.51-2.05 1.51-3.4a5.027 5.027 0 00-5.02-5.04zm35.24 0a5.05 5.05 0 00-5.04 5.04c0 1.36.64 2.5 1.51 3.4-3.48 1.6-5.92 5.35-5.92 9.82 0 .35.28.63.63.63h17.62c.35 0 .63-.28.63-.63 0-4.47-2.44-8.22-5.92-9.82.88-.91 1.51-2.05 1.51-3.4.02-2.78-2.24-5.04-5.02-5.04zm-35.24 1.26a3.77 3.77 0 013.78 3.78c0 1.27-.64 2.38-1.59 3.07-.28.21-.34.6-.13.88.08.1.18.18.3.22 3.17 1.09 5.49 4.39 5.72 8.42H14.29c.24-4.02 2.55-7.33 5.72-8.42.33-.11.51-.47.4-.8a.606.606 0 00-.22-.3c-.96-.69-1.59-1.8-1.59-3.07 0-2.1 1.68-3.78 3.78-3.78zm35.24 0a3.77 3.77 0 013.78 3.78c0 1.27-.64 2.38-1.59 3.07-.28.21-.34.6-.13.88.08.1.18.18.3.22 3.17 1.09 5.49 4.39 5.72 8.42H49.54c.24-4.02 2.55-7.33 5.72-8.42.33-.11.51-.47.4-.8a.606.606 0 00-.22-.3c-.96-.69-1.59-1.8-1.59-3.07 0-2.1 1.68-3.78 3.77-3.78zM40 42.52a5.05 5.05 0 00-5.04 5.04c0 1.36.64 2.5 1.51 3.4-3.48 1.6-5.92 5.35-5.92 9.82 0 .35.28.63.63.63H48.8c.35 0 .63-.28.63-.63 0-4.47-2.44-8.22-5.92-9.82.88-.91 1.51-2.05 1.51-3.4.02-2.78-2.25-5.04-5.02-5.04zm0 1.26a3.77 3.77 0 013.78 3.78c0 1.27-.64 2.38-1.59 3.07-.28.21-.34.6-.13.88.08.1.18.18.3.22 3.17 1.09 5.49 4.39 5.72 8.42H31.92c.24-4.02 2.55-7.33 5.72-8.42.33-.11.51-.47.4-.8a.606.606 0 00-.22-.3c-.96-.69-1.59-1.8-1.59-3.07A3.756 3.756 0 0140 43.78z"/><path class="st3" d="M48.81 61.53H31.19c-.42 0-.75-.34-.75-.75 0-4.3 2.29-8.14 5.84-9.86-.95-1.03-1.43-2.16-1.43-3.36a5.16 5.16 0 1110.32 0c0 1.2-.48 2.33-1.43 3.36 3.55 1.71 5.84 5.56 5.84 9.86-.01.41-.35.75-.77.75zM40 42.64c-2.71 0-4.91 2.2-4.91 4.91 0 1.19.5 2.3 1.48 3.32.03.03.04.07.03.11-.01.04-.03.07-.07.09-3.55 1.63-5.85 5.44-5.85 9.7 0 .28.23.5.5.5H48.8c.28 0 .5-.23.5-.5 0-4.26-2.3-8.07-5.85-9.7a.127.127 0 01-.07-.09c-.01-.04 0-.08.03-.11.98-1.01 1.48-2.13 1.48-3.32.02-2.7-2.18-4.91-4.89-4.91zm8.08 17.63H31.92c-.03 0-.07-.01-.09-.04-.02-.03-.04-.06-.03-.09.24-4.05 2.52-7.4 5.81-8.53a.512.512 0 00.14-.89 3.91 3.91 0 01-1.64-3.17c0-2.15 1.75-3.9 3.9-3.9s3.9 1.75 3.9 3.9c0 1.25-.62 2.43-1.65 3.17-.11.08-.18.2-.2.33-.02.13.01.27.1.37.06.08.15.14.24.18 3.29 1.13 5.57 4.47 5.81 8.53 0 .04-.01.07-.03.09-.03.03-.06.05-.1.05zm-16.03-.25h15.9c-.27-3.84-2.52-7.11-5.63-8.18a.745.745 0 01-.5-.82c.03-.2.13-.38.3-.5a3.65 3.65 0 001.54-2.97c0-2.01-1.64-3.65-3.65-3.65s-3.65 1.64-3.65 3.65c0 1.17.58 2.27 1.54 2.97.13.09.22.22.27.37.13.39-.08.82-.48.96-3.12 1.06-5.37 4.33-5.64 8.17zm34.39-22.41H48.81c-.42 0-.75-.34-.75-.75 0-4.3 2.29-8.14 5.84-9.85-.95-1.03-1.43-2.16-1.43-3.36a5.16 5.16 0 1110.32 0c0 1.2-.48 2.33-1.43 3.36 3.55 1.71 5.84 5.56 5.84 9.85a.77.77 0 01-.76.75zm-8.82-18.89c-2.71 0-4.91 2.2-4.91 4.91 0 1.19.5 2.3 1.48 3.32.03.03.04.07.03.11-.01.04-.03.07-.07.09-3.55 1.63-5.85 5.44-5.85 9.7 0 .28.23.5.5.5h17.62c.28 0 .5-.23.5-.5 0-4.26-2.3-8.07-5.85-9.7a.127.127 0 01-.07-.09c-.01-.04 0-.08.03-.11.98-1.02 1.48-2.13 1.48-3.32.03-2.7-2.18-4.91-4.89-4.91zM31.19 37.61H13.56c-.42 0-.75-.34-.75-.75 0-4.3 2.29-8.14 5.84-9.85-.95-1.03-1.43-2.16-1.43-3.36a5.16 5.16 0 1110.32 0c0 1.2-.48 2.33-1.43 3.36 3.55 1.71 5.84 5.56 5.84 9.85a.77.77 0 01-.76.75zm-8.81-18.89c-2.71 0-4.91 2.2-4.91 4.91 0 1.19.5 2.3 1.48 3.32.03.03.04.07.03.11-.01.04-.03.07-.07.09-3.55 1.63-5.85 5.44-5.85 9.7 0 .28.23.5.5.5h17.62c.28 0 .5-.23.5-.5 0-4.26-2.3-8.07-5.85-9.7a.127.127 0 01-.07-.09c-.01-.04 0-.08.03-.11.98-1.01 1.48-2.13 1.48-3.32.02-2.7-2.19-4.91-4.89-4.91zm43.33 17.63H49.54c-.03 0-.07-.01-.09-.04-.02-.03-.04-.06-.03-.09.24-3.99 2.57-7.42 5.81-8.53.26-.09.41-.38.32-.64a.43.43 0 00-.18-.24 3.91 3.91 0 01-1.64-3.17c0-2.15 1.75-3.9 3.9-3.9s3.9 1.75 3.9 3.9c0 1.25-.62 2.43-1.65 3.17-.11.08-.18.2-.2.33-.02.13.01.27.1.37.06.08.15.14.24.18 3.24 1.11 5.57 4.54 5.81 8.53 0 .03-.01.07-.03.09-.02.02-.06.04-.09.04zm-16.04-.25h15.9c-.27-3.84-2.52-7.11-5.63-8.18a.745.745 0 01-.5-.82c.03-.2.13-.38.3-.5a3.65 3.65 0 001.54-2.97c0-2.01-1.64-3.65-3.65-3.65s-3.65 1.64-3.65 3.65c0 1.17.58 2.27 1.54 2.97.13.09.22.22.27.37.13.4-.08.82-.48.96-3.11 1.06-5.36 4.33-5.64 8.17zm-19.21.25H14.29c-.03 0-.07-.01-.09-.04-.02-.03-.04-.06-.03-.09.24-3.99 2.57-7.42 5.81-8.53a.48.48 0 00.29-.25c.06-.12.07-.26.03-.39a.43.43 0 00-.18-.24 3.91 3.91 0 01-1.64-3.17c0-2.15 1.75-3.9 3.9-3.9s3.9 1.75 3.9 3.9c0 1.25-.62 2.43-1.65 3.17-.11.08-.18.2-.2.33-.02.13.01.27.1.37.06.08.15.14.24.18 3.24 1.11 5.57 4.54 5.81 8.53 0 .03-.01.07-.03.09-.02.02-.06.04-.09.04zm-16.04-.25h15.9c-.27-3.84-2.52-7.11-5.63-8.18a.745.745 0 01-.5-.82c.03-.2.13-.38.3-.5a3.65 3.65 0 001.54-2.97c0-2.01-1.64-3.65-3.65-3.65s-3.65 1.64-3.65 3.65c0 1.17.58 2.27 1.54 2.97a.75.75 0 01-.21 1.32c-3.11 1.07-5.36 4.34-5.64 8.18zM40 27.71a6.56 6.56 0 00-6.55 6.55c0 3.61 2.94 6.55 6.55 6.55s6.55-2.94 6.55-6.55A6.56 6.56 0 0040 27.71zm0 11.84c-2.92 0-5.3-2.38-5.3-5.3s2.38-5.3 5.3-5.3 5.3 2.38 5.3 5.3-2.38 5.3-5.3 5.3z"/><path class="st3" d="M43.09 33.7h-2.46v-2.57c0-.14-.11-.25-.25-.25h-.77c-.14 0-.25.11-.25.25v2.57H36.9c-.14 0-.25.11-.25.25v.72c0 .14.11.25.25.25h2.46v2.59c0 .14.11.25.25.25h.77c.14 0 .25-.11.25-.25v-2.59h2.46c.14 0 .25-.11.25-.25v-.72c0-.13-.11-.25-.25-.25z"/></svg>