<svg version="1.1" id="Layer_1" xmlns="http://www.w3.org/2000/svg" x="0" y="0" viewBox="0 0 80 80" xml:space="preserve"><style>.st0{fill:#e5efef}.st3{fill:#050b33}.st6{fill:#fff}</style><circle class="st0" cx="40" cy="40" r="40"/><path d="M38.64 43.69v10.5h-5.25c-.41 0-.75.34-.75.75v2.2l-2.72-2.73a.75.75 0 00-.53-.22H18.14v-10.5h20.5z" fill="#4fd2c2"/><path class="st3" d="M53.86 18.47c.5.5.78 1.17.78 1.88v15.34h1.5V21.06c0-1.3-.51-2.52-1.43-3.44a4.834 4.834 0 00-3.44-1.43H29.51c-1.3 0-2.52.51-3.44 1.43s-1.43 2.14-1.43 3.44v4.64l-5.45 1.56c-.25.07-.44.26-.51.51-.01.03-.01.07-.01.11l-.03 3.42-.17.06a2.753 2.753 0 00-1.78 3.13c.21 1.07 1.1 1.96 2.18 2.15.82.15 1.65-.07 2.28-.59.63-.52.99-1.29.99-2.11 0-1.15-.74-2.19-1.83-2.58l-.17-.06v-2.33l3.5 1v6.97c0 .25.13.48.34.62.03.02.21.14.53.3l.13.07v4.26h-7.25c-.41 0-.75.34-.75.75v12c0 .41.34.75.75.75h7.25v4.26c0 .83.34 1.64.92 2.22l.63.63c.58.58 1.77.88 2.25.88h15.69v-1.5H28.79c-.71 0-1.38-.28-1.88-.78a2.69 2.69 0 01-.78-1.88v-3.84h2.94l3.77 3.78c.14.14.32.24.53.22.42 0 .75-.34.75-.75v-3.25h5.25c.41 0 .75-.34.75-.75v-12c0-.41-.34-.75-.75-.75H26.14v-3.63l.33.11c2.05.68 4.38 1.02 6.92 1.02 6.26 0 9.38-2.1 9.41-2.13.22-.14.34-.37.34-.62v-6.97l4.46-1.27c.25-.07.44-.26.51-.51.06-.19.03-.4-.06-.57-.1-.18-.26-.3-.45-.36l-14-4a.715.715 0 00-.41 0l-7.05 2.01v-4.93c0-.71.28-1.38.78-1.88s1.17-.78 1.88-.78h3.13l1.79 3.59c.13.25.38.41.67.41h12c.29 0 .55-.16.67-.42l1.79-3.58h3.13c.7.02 1.38.31 1.88.8zM20.64 33.94a1.25 1.25 0 11-2.5 0 1.25 1.25 0 012.5 0zm18 9.75v10.5h-5.25c-.41 0-.75.34-.75.75v2.2l-2.72-2.73a.75.75 0 00-.53-.22H18.14v-10.5h20.5zm3-7.18l-.15.07a18.532 18.532 0 01-8.11 1.61c-.18.01-.37.01-.55.01-2.58 0-5.18-.56-7.55-1.62l-.15-.07V30.4l8.04 2.3c.13.04.28.04.41 0l.04-.01h.01l8-2.29v6.11zm-8.25-11.83l11.26 3.26-11.26 3.26-8.8-2.59c-.05-.01-.1-.02-.18-.02l-.06-.01-2.21-.64 11.25-3.26zm12.53-4.49H34.85l-1.25-2.5h13.58l-1.26 2.5z"/><path class="st3" d="M64 55V41c0-1.66-1.34-3-3-3-.54 0-1.03.15-1.47.4C59 37.56 58.07 37 57 37c-.77 0-1.47.3-2 .78-.53-.48-1.23-.78-2-.78-.35 0-.69.07-1 .18V33c0-1.66-1.34-3-3-3s-3 1.34-3 3v9.05c-3.94.36-4 2.84-4 2.95v4c0 .26.11.51.29.7L46 53.41V55c0 .27.1.52.29.71l.36.36c-.38.14-.65.5-.65.93v6c0 .55.45 1 1 1h16c.55 0 1-.45 1-1v-6c0-.43-.27-.79-.65-.93l.36-.36A.99.99 0 0064 55zm-20-6.41v-3.53c0-.31.53-.83 2-1V49h2V33c0-.55.45-1 1-1s1 .45 1 1v13h2v-6c0-.55.45-1 1-1s1 .45 1 1v6h2v-6c0-.55.45-1 1-1s1 .45 1 1v6h2v-5c0-.55.45-1 1-1s1 .45 1 1v13.59L60.6 56H49.41L48 54.59V53c0-.26-.11-.51-.29-.7L44 48.59zM62 62H48v-4h14v4z"/><path class="st0" d="M63 64.25H47c-.69 0-1.25-.56-1.25-1.25v-6c0-.4.18-.76.49-.99l-.13-.13a1.23 1.23 0 01-.36-.89v-1.48l-3.64-3.64c-.23-.24-.36-.55-.36-.88v-4c0-.11.05-2.72 4-3.18V33c0-1.79 1.46-3.25 3.25-3.25s3.25 1.46 3.25 3.25v3.85c1-.25 1.98 0 2.75.61.58-.45 1.28-.7 2-.7 1.04 0 2 .49 2.61 1.33.45-.22.91-.33 1.39-.33 1.79 0 3.25 1.46 3.25 3.25v14c0 .33-.13.65-.36.89l-.13.13c.31.23.49.59.49.99v6c0 .67-.56 1.23-1.25 1.23zm-14-34c-1.52 0-2.75 1.23-2.75 2.75v9.28l-.23.02c-3.73.34-3.77 2.61-3.77 2.7v4c0 .2.08.38.22.52l3.78 3.78V55c0 .2.08.39.22.53l.63.63-.36.14c-.3.11-.49.38-.49.7v6c0 .41.34.75.75.75h16c.41 0 .75-.34.75-.75v-6c0-.31-.19-.58-.49-.7l-.36-.14.63-.63a.75.75 0 00.22-.53V41c0-1.52-1.23-2.75-2.75-2.75-.46 0-.92.12-1.35.37l-.21.12-.13-.2a2.73 2.73 0 00-4.15-.57l-.16.14-.17-.15a2.73 2.73 0 00-1.83-.71c-.29 0-.59.06-.92.17l-.33.12V33c0-1.52-1.23-2.75-2.75-2.75zm13.25 32h-14.5v-4.5h14.5v4.5zm-14-.5h13.5v-3.5h-13.5v3.5zm12.45-5.5H49.3l-1.56-1.56V53c0-.2-.08-.38-.22-.52l-3.78-3.78v-3.63c0-.49.69-1.07 2.22-1.25l.28-.03v4.97h1.5V33a1.25 1.25 0 012.5 0v12.75h1.5V40a1.25 1.25 0 012.5 0v5.75h1.5V40a1.25 1.25 0 012.5 0v5.75h1.5V41a1.25 1.25 0 012.5 0v13.69l-1.54 1.56zm-11.19-.5h10.98l1.26-1.26V41c0-.41-.34-.75-.75-.75s-.75.34-.75.75v5.25h-2.5V40c0-.41-.34-.75-.75-.75s-.75.34-.75.75v6.25h-2.5V40c0-.41-.34-.75-.75-.75s-.75.34-.75.75v6.25h-2.5V33c0-.41-.34-.75-.75-.75s-.75.34-.75.75v16.25h-2.5v-4.9c-1.12.18-1.5.58-1.5.71v3.43l3.64 3.64c.23.24.36.55.36.88v1.49l1.26 1.25z"/><path class="st3" d="M20.25 46.25h1.5v1.5h-1.5zm4 0h11.5v1.5h-11.5zm-4 4h15.5v1.5h-15.5z"/><path class="st6" d="M41.64 36.51l-.15.07a18.532 18.532 0 01-8.11 1.61c-.18.01-.37.01-.55.01-2.58 0-5.18-.56-7.55-1.62l-.15-.07V30.4l8.04 2.3c.13.04.28.04.41 0l.04-.01h.01l8-2.29v6.11z"/><path class="st6" d="M33.39 24.68l11.26 3.26-11.26 3.26-8.8-2.59c-.05-.01-.1-.02-.18-.02l-.06-.01-2.21-.64 11.25-3.26z"/></svg>