<svg version="1.1" id="Layer_1" xmlns="http://www.w3.org/2000/svg" x="0" y="0" viewBox="0 0 80 80" xml:space="preserve"><style>.st2{fill:#050b33}</style><circle cx="40" cy="40" r="40" fill="#e5efef"/><path class="st2" d="M62.14 42.37c-.31 0-.61.06-.88.17a2.37 2.37 0 00-2.28-1.76c-.31 0-.61.06-.88.17a2.37 2.37 0 00-2.28-1.76c-.28 0-.54.06-.79.15v-1.22a10.24 10.24 0 007.91-10c0-2.32-.78-4.45-2.08-6.17l1.87-1.98-1.15-1.08-1.76 1.87a10.22 10.22 0 00-7.15-2.91c-5.67 0-10.28 4.61-10.28 10.28 0 4.81 3.29 8.91 7.91 10v14.19c-.15-.15-.25-.35-.3-.57l-1.04-5.73a2.517 2.517 0 00-2.47-2.07 2.52 2.52 0 00-2.52 2.51v.51c0 .14.01.28.03.41l1.42 8.54c.11.67.39 1.3.81 1.82l1.96 2.44c.34.42.52.95.52 1.48v2.84h12.65v-2.84c0-.54.18-1.06.52-1.48l1.78-2.22c.56-.7.87-1.58.87-2.47V44.75a2.4 2.4 0 00-2.39-2.38zM43.95 28.14c0-4.8 3.9-8.7 8.7-8.7 2.36 0 4.5.95 6.07 2.48l-9.25 9.83-1.8-1.8-1.12 1.12 2.95 2.95 10.25-10.89c1 1.42 1.6 3.14 1.6 5.01 0 3.95-2.61 7.32-6.33 8.37v-1.25c0-1.31-1.06-2.37-2.37-2.37s-2.37 1.06-2.37 2.37v1.25a8.688 8.688 0 01-6.33-8.37zM62.93 55.5c0 .54-.18 1.06-.52 1.48l-1.78 2.22c-.56.7-.87 1.58-.87 2.47v1.26h-9.49v-1.26c0-.89-.31-1.77-.87-2.47l-1.96-2.44c-.25-.31-.42-.69-.49-1.09l-1.42-8.53c-.01-.05-.01-.1-.01-.16v-.51a.933.933 0 011.85-.16l1.04 5.73a2.681 2.681 0 002.64 2.21h.79v-19c0-.44.35-.79.79-.79.44 0 .79.36.79.79v12.66H55v-6.33c0-.44.35-.79.79-.79.44 0 .79.36.79.79v6.33h1.58v-4.75c0-.44.35-.79.79-.79s.79.36.79.79v4.74h1.58v-3.16c0-.44.35-.79.79-.79.44 0 .79.36.79.79V55.5zM35.25 15.48H21.02c-3.05 0-5.54 2.48-5.54 5.54v37.96c0 3.05 2.48 5.54 5.54 5.54h14.24c3.05 0 5.54-2.48 5.54-5.54V21.02c-.01-3.05-2.49-5.54-5.55-5.54zm3.96 43.5c0 2.18-1.77 3.95-3.95 3.95H21.02c-2.18 0-3.95-1.77-3.95-3.95V21.02c0-2.18 1.77-3.95 3.95-3.95h14.24c2.18 0 3.95 1.77 3.95 3.95v37.96z"/><path class="st2" d="M28.14 32.7l-2.48 4.95-5.57.8 4.03 3.87-.95 5.45 4.96-2.57 4.96 2.57-.95-5.45 4.03-3.87-5.57-.8-2.46-4.95zm2.31 9.06l.54 3.13-2.86-1.48-2.86 1.48.54-3.13-2.3-2.21 3.18-.46 1.43-2.86 1.43 2.86 3.18.46-2.28 2.21z"/><path class="st2" d="M28.14 47.74l-2.23 4.41-5.03.71 3.64 3.47-.85 4.87 4.48-2.3 4.48 2.3-.85-4.87 3.64-3.47-5.03-.71-2.25-4.41zm1.91 8.03l.45 2.57-2.37-1.21-2.37 1.22.45-2.57-1.89-1.8 2.62-.37 1.19-2.36 1.19 2.36 2.62.37-1.89 1.79zm-6.39-23.83l4.48-2.3 4.48 2.3-.85-4.87 3.64-3.47-5.03-.71-2.23-4.41-2.23 4.41-5.03.71 3.64 3.47-.87 4.87zm.67-7.23l2.62-.37 1.19-2.36 1.19 2.36 2.62.37-1.89 1.8.45 2.57-2.37-1.21-2.37 1.22.45-2.57-1.89-1.81z"/><path d="M30.45 41.76l.54 3.13-2.85-1.48-2.86 1.48.54-3.13-2.29-2.21 3.18-.46 1.43-2.86 1.43 2.86 3.18.46zm13.5-13.62c0-4.8 3.9-8.7 8.7-8.7 2.36 0 4.5.95 6.07 2.48l-9.25 9.83-1.8-1.8-1.12 1.12 2.95 2.95 10.25-10.89c1 1.42 1.6 3.14 1.6 5.01 0 3.95-2.61 7.32-6.33 8.37v-1.25c0-1.31-1.06-2.37-2.37-2.37s-2.37 1.06-2.37 2.37v1.25a8.688 8.688 0 01-6.33-8.37z" fill="#4fd2c2"/></svg>