<svg version="1.1" id="Layer_1" xmlns="http://www.w3.org/2000/svg" x="0" y="0" viewBox="0 0 80 80" xml:space="preserve"><style>.st4{fill:#050b33}</style><circle cx="40" cy="40" r="40" fill="#e5efef"/><path d="M20.31 49.2c-2.05 0-3.72-1.67-3.72-3.72V24.63c0-2.05 1.67-3.72 3.72-3.72h30.12c2.05 0 3.72 1.67 3.72 3.72v20.85c0 2.05-1.67 3.72-3.72 3.72H38.84c-.19 0-.39.06-.54.18l-7.81 5.86v-5.13c0-.5-.41-.91-.91-.91h-9.27z" fill="#4fd2c2"/><circle cx="35.14" cy="34.71" r="10.2" fill="#fff"/><path class="st4" d="M24.03 35.05c0 6.25 5.08 11.33 11.33 11.33S46.7 41.3 46.7 35.05c-.01-6.24-5.09-11.33-11.33-11.33-6.25 0-11.34 5.08-11.34 11.33zm20.73 1.19a9.511 9.511 0 01-4.03 6.66l-.79.55.43-.87c.99-2 1.54-4.15 1.63-6.38l.01-.24h2.79l-.04.28zm-4.03-9.04a9.511 9.511 0 014.03 6.66l.03.28H42v-.24c-.09-2.23-.64-4.38-1.63-6.38l-.43-.87.79.55zm-4.45-1.47l.38.22c1.9 1.1 3.29 4.21 3.53 7.93l.02.27h-3.93v-8.42zm0 10.23h3.93l-.02.27c-.25 3.72-1.63 6.83-3.53 7.93l-.38.22v-8.42zM30 42.9a9.511 9.511 0 01-4.03-6.66l-.03-.28h2.79l.01.24c.09 2.23.64 4.38 1.63 6.38l.43.87-.8-.55zm4.46 1.47l-.38-.22c-1.9-1.1-3.29-4.21-3.53-7.93l-.02-.27h3.93v8.42zm-.38-18.42l.38-.22v8.41h-3.93l.02-.27c.24-3.71 1.63-6.83 3.53-7.92zM30 27.2l.8-.55-.43.87c-.99 2-1.54 4.15-1.63 6.38l-.01.24h-2.79l.03-.28c.33-2.69 1.8-5.12 4.03-6.66z"/><path class="st4" d="M39.14 51.02h11.28c3.05 0 5.54-2.49 5.54-5.54V24.63c0-3.05-2.49-5.54-5.54-5.54H20.31c-3.05 0-5.54 2.49-5.54 5.54v20.85c0 3.05 2.49 5.54 5.54 5.54h8.36v6.04c0 .24.09.47.27.64.31.31.84.35 1.19.08l9.01-6.76zM20.31 49.2c-2.05 0-3.72-1.67-3.72-3.72V24.63c0-2.05 1.67-3.72 3.72-3.72h30.12c2.05 0 3.72 1.67 3.72 3.72v20.85c0 2.05-1.67 3.72-3.72 3.72H38.84c-.19 0-.39.06-.54.18l-7.81 5.86v-5.13c0-.5-.41-.91-.91-.91h-9.27z"/><path class="st4" d="M40.61 57.78l9.27 6.95c.15.12.35.18.54.18.24 0 .47-.09.64-.27.17-.17.27-.4.27-.64v-6.04h8.36c3.05 0 5.54-2.49 5.54-5.54V31.58c0-3.05-2.49-5.54-5.54-5.54-.5 0-.91.41-.91.91s.41.91.91.91c2.05 0 3.72 1.67 3.72 3.72v20.85c0 2.05-1.67 3.72-3.72 3.72h-9.27a.9.9 0 00-.64.26.91.91 0 00-.27.64v5.13l-7.81-5.86a.899.899 0 00-.54-.18.9.9 0 00-.73.36c-.3.41-.22.98.18 1.28z"/></svg>